<svg id="tw-logo-white" xmlns="http://www.w3.org/2000/svg" xmlns:xlink="http://www.w3.org/1999/xlink" viewBox="0 0 103 53" shape-rendering="geometricPrecision" text-rendering="geometricPrecision"><style><![CDATA[#tw-logo-white-path5 {animation: tw-logo-white-path5_c_o 10000ms linear infinite normal forwards}@keyframes tw-logo-white-path5_c_o { 0% {opacity: 0} 1% {opacity: 0} 20% {opacity: 1} 100% {opacity: 1}} #tw-logo-white-path6 {animation: tw-logo-white-path6_c_o 10000ms linear infinite normal forwards}@keyframes tw-logo-white-path6_c_o { 0% {opacity: 0} 2% {opacity: 0} 20% {opacity: 1} 100% {opacity: 1}} #tw-logo-white-rect1 {animation: tw-logo-white-rect1_c_o 10000ms linear infinite normal forwards}@keyframes tw-logo-white-rect1_c_o { 0% {opacity: 0} 3% {opacity: 0} 20% {opacity: 1} 100% {opacity: 1}} #tw-logo-white-path7 {animation: tw-logo-white-path7_c_o 10000ms linear infinite normal forwards}@keyframes tw-logo-white-path7_c_o { 0% {opacity: 0} 4% {opacity: 0} 20% {opacity: 1} 100% {opacity: 1}} #tw-logo-white-rect2 {animation: tw-logo-white-rect2_c_o 10000ms linear infinite normal forwards}@keyframes tw-logo-white-rect2_c_o { 0% {opacity: 0} 5% {opacity: 0} 20% {opacity: 1} 100% {opacity: 1}} #tw-logo-white-path8 {animation: tw-logo-white-path8_c_o 10000ms linear infinite normal forwards}@keyframes tw-logo-white-path8_c_o { 0% {opacity: 0} 6% {opacity: 0} 20% {opacity: 1} 100% {opacity: 1}} #tw-logo-white-path9 {animation: tw-logo-white-path9_c_o 10000ms linear infinite normal forwards}@keyframes tw-logo-white-path9_c_o { 0% {opacity: 0} 8% {opacity: 0} 20% {opacity: 1} 100% {opacity: 1}} #tw-logo-white-path10 {animation: tw-logo-white-path10_c_o 10000ms linear infinite normal forwards}@keyframes tw-logo-white-path10_c_o { 0% {opacity: 0} 9% {opacity: 0} 20% {opacity: 1} 100% {opacity: 1}} #tw-logo-white-path11 {animation: tw-logo-white-path11_c_o 10000ms linear infinite normal forwards}@keyframes tw-logo-white-path11_c_o { 0% {opacity: 0} 10% {opacity: 0} 20% {opacity: 1} 100% {opacity: 1}} #tw-logo-white-path12 {animation: tw-logo-white-path12_c_o 10000ms linear infinite normal forwards}@keyframes tw-logo-white-path12_c_o { 0% {opacity: 0} 11% {opacity: 0} 20% {opacity: 1} 100% {opacity: 1}} #tw-logo-white-path13 {animation: tw-logo-white-path13_c_o 10000ms linear infinite normal forwards}@keyframes tw-logo-white-path13_c_o { 0% {opacity: 0} 12% {opacity: 0} 20% {opacity: 1} 100% {opacity: 1}} #tw-logo-white-path14 {animation: tw-logo-white-path14_c_o 10000ms linear infinite normal forwards}@keyframes tw-logo-white-path14_c_o { 0% {opacity: 0} 12% {opacity: 0} 20% {opacity: 1} 100% {opacity: 1}} #tw-logo-white-path15 {animation: tw-logo-white-path15_c_o 10000ms linear infinite normal forwards}@keyframes tw-logo-white-path15_c_o { 0% {opacity: 0} 13% {opacity: 0} 20% {opacity: 1} 100% {opacity: 1}} #tw-logo-white-path16 {animation: tw-logo-white-path16_c_o 10000ms linear infinite normal forwards}@keyframes tw-logo-white-path16_c_o { 0% {opacity: 0} 14% {opacity: 0} 20% {opacity: 1} 100% {opacity: 1}}]]></style><path id="tw-logo-white-path1" d="M74.299000,6.695000L77.657000,5.780000L78.807000,2.493000L80.714000,5.406000L84.194000,5.483000L82.016000,8.198000L83.018000,11.532000L79.762000,10.297000L76.901000,12.281000L77.067000,8.802000L74.299000,6.695000Z" clip-rule="evenodd" fill="rgb(244,245,246)" stroke="none" stroke-width="1" stroke-linejoin="round" stroke-miterlimit="2"/><path id="tw-logo-white-path2" d="M87.814000,13.908000L91.648000,11.660000L91.968000,7.227000L95.290000,10.179000L99.605000,9.115000L97.824000,13.185000L100.171000,16.959000L95.750000,16.527000L92.884000,19.923000L91.930000,15.581000L87.814000,13.908000Z" clip-rule="evenodd" fill="rgb(244,245,246)" stroke="none" stroke-width="1" stroke-linejoin="round" stroke-miterlimit="2"/><path id="tw-logo-white-path3" d="M94.573000,24.887000L97.683000,26.452000L100.734000,24.776000L100.208000,28.216000L102.746000,30.599000L99.310000,31.163000L97.829000,34.311000L96.229000,31.219000L92.778000,30.782000L95.224000,28.307000L94.573000,24.887000Z" clip-rule="evenodd" fill="rgb(244,245,246)" stroke="none" stroke-width="1" stroke-linejoin="round" stroke-miterlimit="2"/><path id="tw-logo-white-path4" d="M63.733000,0L39.579000,25.989000L39.072000,25.482000L26.114000,9.970000L1.772000,41.745000L99.374000,41.745000L63.733000,0Z" clip-rule="evenodd" fill="rgb(244,245,246)" stroke="none" stroke-width="1" stroke-linejoin="round" stroke-miterlimit="2"/><path id="tw-logo-white-path5" d="M7.506000,45.780000L4.845000,45.780000L4.845000,51.907000L2.660000,51.907000L2.660000,45.780000L0,45.780000L0,43.810000L7.506000,43.810000L7.506000,45.780000Z" opacity="0" clip-rule="evenodd" fill="rgb(250,2,183)" stroke="none" stroke-width="1" stroke-linejoin="round" stroke-miterlimit="2"/><path id="tw-logo-white-path6" d="M20.276000,43.811000L17.133000,52.013000L15.865000,52.013000L13.979000,47.241000L12.046000,52.013000L10.768000,52.013000L7.688000,43.811000L9.957000,43.811000L11.465000,48.298000L13.194000,43.811000L14.760000,43.811000L16.458000,48.298000L18.034000,43.811000L20.276000,43.811000Z" opacity="0" clip-rule="evenodd" fill="rgb(250,2,183)" stroke="none" stroke-width="1" stroke-linejoin="round" stroke-miterlimit="2"/><rect id="tw-logo-white-rect1" width="2.190000" height="8.098000" rx="0" ry="0" transform="matrix(1 0 0 1 21.02400016784668 43.81100082397461)" opacity="0" clip-rule="evenodd" fill="rgb(250,2,183)" stroke="none" stroke-width="1" stroke-linejoin="round" stroke-miterlimit="2"/><path id="tw-logo-white-path7" d="M30.296000,51.909000L24.780000,51.909000L24.780000,43.811000L26.969000,43.811000L26.969000,49.969000L30.296000,49.969000L30.296000,51.909000Z" opacity="0" clip-rule="evenodd" fill="rgb(250,2,183)" stroke="none" stroke-width="1" stroke-linejoin="round" stroke-miterlimit="2"/><rect id="tw-logo-white-rect2" width="2.191000" height="8.098000" rx="0" ry="0" transform="matrix(1 0 0 1 31.31100082397461 43.81100082397461)" opacity="0" clip-rule="evenodd" fill="rgb(250,2,183)" stroke="none" stroke-width="1" stroke-linejoin="round" stroke-miterlimit="2"/><path id="tw-logo-white-path8" d="M41.914000,51.335000C41.756000,51.401000,41.622000,51.456000,41.510000,51.499000C41.398000,51.542000,41.292000,51.581000,41.188000,51.616000C41.085000,51.651000,40.936000,51.696000,40.740000,51.751000C40.408000,51.835000,40.077000,51.901000,39.748000,51.946000C39.418000,51.991000,39.068000,52.013000,38.702000,52.013000C37.965000,52.013000,37.284000,51.864000,36.659000,51.563000C36.034000,51.263000,35.534000,50.798000,35.159000,50.167000C34.784000,49.536000,34.596000,48.761000,34.596000,47.843000C34.596000,47.251000,34.693000,46.669000,34.887000,46.098000C35.082000,45.527000,35.377000,45.071000,35.775000,44.728000C36.103000,44.444000,36.436000,44.227000,36.773000,44.077000C37.110000,43.927000,37.439000,43.827000,37.760000,43.776000C38.082000,43.725000,38.436000,43.700000,38.823000,43.700000C39.462000,43.700000,39.990000,43.755000,40.405000,43.861000C40.821000,43.968000,41.277000,44.110000,41.772000,44.286000L41.772000,46.202000C41.444000,45.987000,41.096000,45.808000,40.730000,45.665000C40.364000,45.520000,39.906000,45.448000,39.357000,45.448000C38.725000,45.448000,38.219000,45.581000,37.841000,45.848000C37.462000,46.116000,37.198000,46.433000,37.050000,46.804000C36.901000,47.175000,36.828000,47.532000,36.828000,47.880000C36.828000,48.288000,36.913000,48.665000,37.084000,49.009000C37.254000,49.354000,37.513000,49.632000,37.858000,49.839000C38.205000,50.048000,38.622000,50.152000,39.110000,50.152000C39.389000,50.152000,39.686000,50.111000,40.002000,50.030000L40.002000,49.077000L39.016000,49.077000L39.016000,47.448000L41.914000,47.448000L41.914000,51.335000Z" opacity="0" clip-rule="evenodd" fill="rgb(250,2,183)" stroke="none" stroke-width="1" stroke-linejoin="round" stroke-miterlimit="2"/><path id="tw-logo-white-path9" d="M51.038000,51.909000L48.853000,51.909000L48.853000,48.747000L45.558000,48.747000L45.558000,51.909000L43.368000,51.909000L43.368000,43.811000L45.558000,43.811000L45.558000,46.786000L48.853000,46.786000L48.853000,43.811000L51.038000,43.811000L51.038000,51.909000Z" opacity="0" clip-rule="evenodd" fill="rgb(250,2,183)" stroke="none" stroke-width="1" stroke-linejoin="round" stroke-miterlimit="2"/><path id="tw-logo-white-path10" d="M59.554000,45.780000L56.893000,45.780000L56.893000,51.907000L54.709000,51.907000L54.709000,45.780000L52.047000,45.780000L52.047000,43.810000L59.554000,43.810000L59.554000,45.780000Z" opacity="0" clip-rule="evenodd" fill="rgb(250,2,183)" stroke="none" stroke-width="1" stroke-linejoin="round" stroke-miterlimit="2"/><path id="tw-logo-white-path11" d="M65.640000,49.553000C65.640000,50.059000,65.524000,50.499000,65.292000,50.868000C65.059000,51.237000,64.735000,51.520000,64.319000,51.718000C63.903000,51.915000,63.427000,52.012000,62.889000,52.012000C62.739000,52.012000,62.555000,52.001000,62.336000,51.980000C62.118000,51.960000,61.829000,51.899000,61.466000,51.802000C61.105000,51.704000,60.728000,51.560000,60.337000,51.370000L60.337000,49.384000C60.705000,49.636000,61.065000,49.847000,61.419000,50.014000C61.773000,50.181000,62.153000,50.265000,62.558000,50.265000C62.932000,50.265000,63.174000,50.196000,63.284000,50.057000C63.394000,49.919000,63.449000,49.790000,63.449000,49.669000C63.449000,49.450000,63.355000,49.266000,63.167000,49.116000C62.977000,48.966000,62.704000,48.811000,62.343000,48.652000C61.945000,48.466000,61.596000,48.261000,61.296000,48.042000C60.997000,47.821000,60.751000,47.546000,60.560000,47.214000C60.371000,46.884000,60.275000,46.493000,60.275000,46.040000C60.275000,45.604000,60.372000,45.210000,60.563000,44.857000C60.755000,44.505000,61.048000,44.223000,61.443000,44.013000C61.838000,43.803000,62.319000,43.698000,62.889000,43.698000C63.294000,43.698000,63.669000,43.743000,64.013000,43.831000C64.357000,43.917000,64.641000,44.016000,64.865000,44.126000C65.089000,44.234000,65.242000,44.320000,65.326000,44.382000L65.326000,46.282000C65.029000,46.044000,64.698000,45.833000,64.334000,45.645000C63.968000,45.458000,63.579000,45.364000,63.163000,45.364000C62.890000,45.364000,62.692000,45.423000,62.570000,45.540000C62.447000,45.657000,62.386000,45.800000,62.386000,45.972000C62.386000,46.132000,62.447000,46.270000,62.570000,46.387000C62.692000,46.505000,62.910000,46.646000,63.225000,46.814000C63.784000,47.106000,64.231000,47.370000,64.566000,47.603000C64.901000,47.837000,65.165000,48.106000,65.355000,48.413000C65.546000,48.718000,65.640000,49.098000,65.640000,49.553000Z" opacity="0" clip-rule="evenodd" fill="rgb(250,2,183)" stroke="none" stroke-width="1" stroke-linejoin="round" stroke-miterlimit="2"/><path id="tw-logo-white-path12" d="M73.361000,51.300000C73.061000,51.475000,72.753000,51.616000,72.439000,51.720000C72.126000,51.825000,71.808000,51.900000,71.488000,51.945000C71.169000,51.989000,70.838000,52.012000,70.496000,52.012000C69.863000,52.012000,69.296000,51.915000,68.795000,51.720000C68.294000,51.525000,67.859000,51.239000,67.491000,50.858000C67.123000,50.479000,66.846000,50.034000,66.664000,49.526000C66.480000,49.018000,66.388000,48.460000,66.388000,47.852000C66.388000,47.155000,66.497000,46.544000,66.713000,46.020000C66.930000,45.497000,67.233000,45.061000,67.623000,44.714000C68.011000,44.368000,68.456000,44.111000,68.954000,43.946000C69.451000,43.782000,69.975000,43.698000,70.527000,43.698000C71.351000,43.698000,72.285000,43.902000,73.330000,44.311000L73.330000,46.462000C72.970000,46.212000,72.614000,46.005000,72.263000,45.839000C71.913000,45.673000,71.500000,45.591000,71.024000,45.591000C70.601000,45.591000,70.208000,45.683000,69.840000,45.870000C69.473000,46.057000,69.178000,46.325000,68.956000,46.671000C68.731000,47.017000,68.621000,47.423000,68.621000,47.886000C68.621000,48.294000,68.718000,48.669000,68.914000,49.011000C69.109000,49.351000,69.380000,49.622000,69.728000,49.823000C70.075000,50.022000,70.467000,50.124000,70.904000,50.124000C71.257000,50.124000,71.591000,50.075000,71.904000,49.980000C72.218000,49.884000,72.483000,49.778000,72.698000,49.661000C72.914000,49.544000,73.134000,49.407000,73.361000,49.247000L73.361000,51.300000Z" opacity="0" clip-rule="evenodd" fill="rgb(250,2,183)" stroke="none" stroke-width="1" stroke-linejoin="round" stroke-miterlimit="2"/><path id="tw-logo-white-path13" d="M79.201000,48.858000L78.138000,45.902000L77.064000,48.858000L79.201000,48.858000ZM82.539000,51.909000L80.296000,51.909000L79.705000,50.266000L76.551000,50.266000L75.948000,51.909000L73.707000,51.909000L76.918000,43.811000L79.337000,43.811000L82.539000,51.909000Z" opacity="0" clip-rule="evenodd" fill="rgb(250,2,183)" stroke="none" stroke-width="1" stroke-linejoin="round" stroke-miterlimit="2"/><path id="tw-logo-white-path14" d="M87.289000,46.370000C87.289000,45.984000,87.185000,45.720000,86.981000,45.577000C86.777000,45.434000,86.412000,45.364000,85.883000,45.364000L85.422000,45.364000L85.422000,47.316000L85.894000,47.316000C86.257000,47.316000,86.538000,47.292000,86.732000,47.241000C86.928000,47.189000,87.069000,47.096000,87.156000,46.960000C87.244000,46.823000,87.289000,46.626000,87.289000,46.370000ZM89.520000,46.357000C89.520000,46.657000,89.474000,46.950000,89.381000,47.236000C89.289000,47.522000,89.139000,47.790000,88.933000,48.036000C88.727000,48.284000,88.449000,48.484000,88.098000,48.638000C87.748000,48.792000,87.335000,48.868000,86.859000,48.868000L85.423000,48.868000L85.423000,51.907000L83.234000,51.907000L83.234000,43.809000L86.858000,43.809000C87.334000,43.809000,87.747000,43.887000,88.097000,44.042000C88.448000,44.198000,88.726000,44.400000,88.932000,44.650000C89.138000,44.899000,89.288000,45.171000,89.380000,45.462000C89.473000,45.757000,89.520000,46.054000,89.520000,46.357000Z" opacity="0" clip-rule="evenodd" fill="rgb(250,2,183)" stroke="none" stroke-width="1" stroke-linejoin="round" stroke-miterlimit="2"/><path id="tw-logo-white-path15" d="M95.941000,51.909000L90.467000,51.909000L90.467000,43.811000L95.852000,43.811000L95.852000,45.435000L92.656000,45.435000L92.656000,46.919000L95.706000,46.919000L95.706000,48.550000L92.656000,48.550000L92.656000,50.278000L95.941000,50.278000L95.941000,51.909000Z" opacity="0" clip-rule="evenodd" fill="rgb(250,2,183)" stroke="none" stroke-width="1" stroke-linejoin="round" stroke-miterlimit="2"/><path id="tw-logo-white-path16" d="M102.217000,49.553000C102.217000,50.059000,102.101000,50.499000,101.867000,50.868000C101.636000,51.237000,101.312000,51.520000,100.896000,51.718000C100.479000,51.915000,100.004000,52.012000,99.465000,52.012000C99.315000,52.012000,99.131000,52.001000,98.913000,51.980000C98.694000,51.960000,98.404000,51.899000,98.043000,51.802000C97.681000,51.704000,97.304000,51.560000,96.914000,51.370000L96.914000,49.384000C97.280000,49.636000,97.641000,49.847000,97.996000,50.014000C98.349000,50.181000,98.729000,50.265000,99.134000,50.265000C99.508000,50.265000,99.751000,50.196000,99.860000,50.057000C99.970000,49.919000,100.025000,49.790000,100.025000,49.669000C100.025000,49.450000,99.931000,49.266000,99.742000,49.116000C99.553000,48.966000,99.279000,48.811000,98.919000,48.652000C98.521000,48.466000,98.172000,48.261000,97.873000,48.042000C97.572000,47.821000,97.326000,47.546000,97.136000,47.214000C96.946000,46.884000,96.851000,46.493000,96.851000,46.040000C96.851000,45.604000,96.947000,45.210000,97.139000,44.857000C97.332000,44.505000,97.625000,44.223000,98.019000,44.013000C98.415000,43.803000,98.895000,43.698000,99.465000,43.698000C99.871000,43.698000,100.246000,43.743000,100.590000,43.831000C100.934000,43.917000,101.218000,44.016000,101.441000,44.126000C101.666000,44.234000,101.818000,44.320000,101.902000,44.382000L101.902000,46.282000C101.605000,46.044000,101.274000,45.833000,100.909000,45.645000C100.545000,45.458000,100.154000,45.364000,99.738000,45.364000C99.466000,45.364000,99.268000,45.423000,99.146000,45.540000C99.023000,45.657000,98.962000,45.800000,98.962000,45.972000C98.962000,46.132000,99.023000,46.270000,99.146000,46.387000C99.268000,46.505000,99.486000,46.646000,99.801000,46.814000C100.360000,47.106000,100.808000,47.370000,101.143000,47.603000C101.478000,47.837000,101.740000,48.106000,101.932000,48.413000C102.123000,48.718000,102.217000,49.098000,102.217000,49.553000Z" opacity="0" clip-rule="evenodd" fill="rgb(250,2,183)" stroke="none" stroke-width="1" stroke-linejoin="round" stroke-miterlimit="2"/><path id="tw-logo-white-path17" d="M39.771000,23.917000L47.446000,15.991000C44.296000,7.708000,35.691000,1.187000,25.844000,1.187000C13.300000,1.187000,3.132000,10.798000,3.132000,22.653000C3.132000,26.751000,4.347000,30.579000,6.456000,33.837000L26.063000,7.591000" clip-rule="evenodd" fill="rgb(244,245,246)" stroke="none" stroke-width="1" stroke-linejoin="round" stroke-miterlimit="2"/></svg>