<svg id="eXUNLqfVu9b1" xmlns="http://www.w3.org/2000/svg" xmlns:xlink="http://www.w3.org/1999/xlink" viewBox="0 0 799 800" shape-rendering="geometricPrecision" text-rendering="geometricPrecision"><style><![CDATA[#eXUNLqfVu9b4_to {animation: eXUNLqfVu9b4_to__to 3000ms linear 1 normal forwards}@keyframes eXUNLqfVu9b4_to__to { 0% {transform: translate(72px,108px)} 100% {transform: translate(-583.644409px,109.657000px)}} #eXUNLqfVu9b5_to {animation: eXUNLqfVu9b5_to__to 3000ms linear 1 normal forwards}@keyframes eXUNLqfVu9b5_to__to { 0% {transform: translate(-605.927000px,109.657000px)} 100% {transform: translate(84.001000px,109.657000px)}} #eXUNLqfVu9b9_to {animation: eXUNLqfVu9b9_to__to 3000ms linear 1 normal forwards}@keyframes eXUNLqfVu9b9_to__to { 0% {transform: translate(589.358231px,540.413223px)} 100% {transform: translate(263.369859px,534.883906px)}}]]></style><defs><image id="eXUNLqfVu9b2" width="665" height="462" xlink:href="/api/svgator/customer/images/2768528caf6146fdbd870af64b6285d6/view" preserveAspectRatio="xMidYMid meet"/></defs><path id="eXUNLqfVu9b3" d="M749.001000,125.345000C749.001000,109.148000,735.851000,95.998000,719.654000,95.998000L87.408000,95.998000C71.211000,95.998000,58.061000,109.148000,58.061000,125.345000L58.061000,555.968000C58.061000,572.165000,71.211000,585.316000,87.408000,585.316000L719.654000,585.316000C735.851000,585.316000,749.001000,572.165000,749.001000,555.968000L749.001000,125.345000Z" clip-rule="evenodd" fill="rgb(2,0,2)" fill-rule="evenodd" stroke="none" stroke-width="1" stroke-linecap="round" stroke-linejoin="round" stroke-miterlimit="1"/><g id="eXUNLqfVu9b4_to" transform="translate(72,108)"><use id="eXUNLqfVu9b4" width="665" height="462" xlink:href="#eXUNLqfVu9b2" transform="translate(0,0)" clip-rule="evenodd" fill="rgb(0,0,0)" fill-rule="evenodd" stroke="none" stroke-width="1" stroke-linecap="round" stroke-linejoin="round" stroke-miterlimit="1"/></g><g id="eXUNLqfVu9b5_to" transform="translate(-605.927000,109.657000)"><use id="eXUNLqfVu9b5" width="665" height="462" xlink:href="#eXUNLqfVu9b2" transform="translate(0,0)" clip-rule="evenodd" fill="rgb(0,0,0)" fill-rule="evenodd" stroke="none" stroke-width="1" stroke-linecap="round" stroke-linejoin="round" stroke-miterlimit="1"/></g><g id="eXUNLqfVu9b6" clip-rule="evenodd"><path id="eXUNLqfVu9b7" d="M21.189000,754.131000L163.355000,806.876000C163.355000,806.876000,174.064000,783.231000,179.553000,780.936000C185.043000,778.640000,215.440000,754.096000,221.855000,748.617000C231.924000,740.020000,253.724000,710.511000,261.947000,692.760000C266.575000,682.770000,292.102000,596.712000,292.102000,596.712000L297.070000,582.396000L107.158000,581.884000C107.158000,581.884000,100.196000,575.684000,102.242000,568.592000C104.288000,561.500000,108.021000,553.603000,109.927000,548.118000C122.462000,512.051000,123.742000,474.445000,122.809000,470.142000C119.619000,455.431000,123.133000,444.606000,104.004000,427.305000C84.875000,410.003000,61.736000,436.780000,62.540000,436.502000C63.343000,436.223000,55.259000,442.525000,59.116000,456.561000C62.973000,470.596000,58.930000,487.309000,58.930000,487.309000C58.930000,487.309000,57.439000,504.059000,36.796000,521.674000C27.685000,529.449000,6.946000,554.039000,5.741000,557.027000C4.536000,560.015000,-1.285000,570.893000,-0.529000,577.408000C0.226000,583.923000,-1.357000,620.745000,-0.430000,625.093000C0.496000,629.441000,2.233000,656.835000,3.833000,667.612000C5.980000,682.072000,19.335000,702.485000,19.940000,703.392000C20.544000,704.299000,25.960000,712.134000,26.067000,713.414000C26.173000,714.693000,29.739000,721.680000,27.657000,734.165000C26.142000,743.257000,21.189000,754.131000,21.189000,754.131000Z" clip-rule="evenodd" fill="rgb(213,147,104)" fill-rule="evenodd" stroke="rgb(0,0,0)" stroke-width="0.240000" stroke-linecap="round" stroke-linejoin="round" stroke-miterlimit="1"/><path id="eXUNLqfVu9b8" d="M64.203000,441.148000C64.203000,441.148000,103.589000,483.141000,63.006000,494.474000C57.837000,495.918000,60.570000,488.642000,60.877000,477.869000C61.064000,471.308000,59.073000,460.952000,59.073000,460.952000C59.073000,460.952000,59.087000,450.608000,60.183000,445.405000C61.280000,440.202000,64.203000,441.148000,64.203000,441.148000Z" clip-rule="evenodd" fill="rgb(227,172,132)" fill-rule="evenodd" stroke="rgb(219,0,88)" stroke-width="0.240000" stroke-linecap="round" stroke-linejoin="round" stroke-miterlimit="1"/></g><g id="eXUNLqfVu9b9_to" transform="translate(589.358231,540.413223)"><g id="eXUNLqfVu9b9" transform="translate(-589.358231,-540.413223)" clip-rule="evenodd"><path id="eXUNLqfVu9b10" d="M630.603000,766.029000C630.603000,766.029000,618.964000,741.613000,611.569000,734.761000C604.175000,727.910000,587.177000,719.088000,587.177000,719.088000L545.190000,696.638000L510.834000,678.627000C510.834000,678.627000,491.358000,668,482.628000,666.299000C473.898000,664.599000,468.810000,663.310000,441.756000,673.150000C414.703000,682.990000,402.445000,659.905000,400.558000,657.740000C398.672000,655.575000,388.239000,643.235000,408.529000,624.671000C428.820000,606.108000,443.406000,602.003000,462.227000,601.298000C481.048000,600.594000,491.414000,599.326000,517.814000,601.287000C544.213000,603.248000,534.546000,580.344000,536.498000,587.897000C538.450000,595.449000,490.903000,445.481000,479.550000,412.799000C466.097000,374.068000,459.516000,341.124000,459.516000,341.124000C459.516000,341.124000,464.077000,303.324000,499.801000,318.312000C518.776000,326.273000,562.664000,477.766000,561.428000,476.295000C560.015000,474.613000,560.081000,461.643000,560.081000,461.643000C560.081000,461.643000,559.482000,448.117000,570.395000,437.242000C573.171000,434.476000,580.877000,430.691000,585.005000,430.207000C598.696000,428.601000,601.900000,432.774000,604.625000,435.051000C609.063000,438.761000,612.435000,440.242000,616.726000,449.786000C618.980000,454.798000,621.028000,459.699000,621.028000,459.699000L623.013000,459.028000C623.013000,459.028000,620.523000,453.606000,619.733000,451.829000C618.944000,450.052000,618.438000,441.867000,618.438000,441.867000C618.957000,447.182000,617.900000,434.070000,624.367000,427.795000C625.515000,426.681000,631.023000,418.576000,640.514000,417.789000C650.005000,417.001000,658.655000,419.854000,662.585000,422.741000C664.777000,424.352000,674.064000,438.208000,674.262000,440.161000C674.594000,443.439000,674.771000,443.749000,674.771000,443.749000L676.999000,443.774000C676.999000,443.774000,676.361000,436.405000,678.163000,429.838000C679.630000,424.492000,681.277000,420.789000,683.894000,418.709000C687.478000,415.861000,691.753000,410.972000,708.746000,414.207000C719.299000,416.216000,723.807000,426.793000,724.478000,427.268000C725.148000,427.743000,741.440000,470.970000,742.750000,472.419000C744.059000,473.868000,765.147000,529.944000,765.209000,530.881000C765.272000,531.817000,776.955000,566.811000,777.552000,571.155000C778.149000,575.499000,784.187000,617.559000,782.063000,633.738000C779.960000,649.755000,776.167000,669.699000,774.020000,675.544000C770.177000,686.010000,768.132000,694.398000,771.241000,706.860000C771.906000,709.527000,775.302000,720.338000,775.302000,720.338000L630.603000,766.029000" clip-rule="evenodd" fill="rgb(213,147,104)" fill-rule="evenodd" stroke="rgb(0,0,0)" stroke-width="0.240000" stroke-linecap="round" stroke-linejoin="round" stroke-miterlimit="1"/><path id="eXUNLqfVu9b11" d="M464.189000,340.242000L465.916000,350.329000L471.057000,358.925000L479.350000,358.970000L489.339000,356.529000L501.422000,352.678000L508.232000,347.399000L509.807000,340.042000L504.593000,329.011000L498.415000,321.177000L484.489000,317.673000L472.977000,321.638000L467.298000,330.045000L464.189000,340.242000Z" clip-rule="evenodd" fill="rgb(255,218,186)" fill-opacity="0.38999998569488525" fill-rule="evenodd" stroke="rgb(219,0,88)" stroke-width="0.240000" stroke-linecap="round" stroke-linejoin="round" stroke-miterlimit="1"/><path id="eXUNLqfVu9b12" d="M422.032000,672.491000C422.032000,672.491000,453.929000,624.561000,474.224000,661.487000C476.809000,666.190000,469.101000,665.189000,458.543000,667.349000C452.112000,668.664000,442.484000,672.966000,442.484000,672.966000C442.484000,672.966000,432.409000,675.313000,427.093000,675.433000C421.777000,675.552000,422.032000,672.491000,422.032000,672.491000Z" clip-rule="evenodd" fill="rgb(227,172,132)" fill-rule="evenodd" stroke="rgb(219,0,88)" stroke-width="0.240000" stroke-linecap="round" stroke-linejoin="round" stroke-miterlimit="1"/></g></g></svg>