<?xml version="1.0" encoding="UTF-8" standalone="no"?><!DOCTYPE svg PUBLIC "-//W3C//DTD SVG 1.1//EN" "http://www.w3.org/Graphics/SVG/1.1/DTD/svg11.dtd"><svg width="100%" height="100%" viewBox="0 0 512 512" version="1.1" xmlns="http://www.w3.org/2000/svg" xmlns:xlink="http://www.w3.org/1999/xlink" xml:space="preserve" xmlns:serif="http://www.serif.com/" style="fill-rule:evenodd;clip-rule:evenodd;stroke-linejoin:round;stroke-miterlimit:2;"><rect x="-14.602" y="-8.396" width="540.384" height="529.565" style="fill:#ebebeb;"/><g><g><path d="M90.101,440.793c-5.458,1.56 -11.176,2.339 -17.154,2.339c-9.096,0 -16.763,-1.819 -23.001,-5.457c-6.237,-3.639 -11.175,-8.187 -14.814,-13.645c-3.639,-5.458 -6.238,-11.501 -7.797,-18.128c-1.559,-6.628 -2.339,-13.06 -2.339,-19.298c0,-8.317 1.104,-16.893 3.314,-25.73c2.209,-8.837 4.613,-17.608 7.212,-26.315c2.599,-8.707 5.003,-17.153 7.212,-25.34c2.209,-8.187 3.314,-16.049 3.314,-23.586c0,-3.119 -0.26,-6.238 -0.78,-9.357c-0.52,-3.118 -1.559,-5.912 -3.119,-8.381c-1.559,-2.47 -3.638,-4.484 -6.237,-6.043c-2.599,-1.56 -5.978,-2.339 -10.136,-2.339c-3.379,0 -7.408,0.39 -12.086,1.169l0,-21.831c4.678,0.779 8.707,1.169 12.086,1.169c4.158,0 7.537,-0.78 10.136,-2.339c2.599,-1.559 4.678,-3.574 6.237,-6.043c1.56,-2.469 2.599,-5.263 3.119,-8.381c0.52,-3.119 0.78,-6.238 0.78,-9.357c0,-7.277 -1.105,-15.074 -3.314,-23.391c-2.209,-8.317 -4.613,-16.828 -7.212,-25.535c-2.599,-8.707 -5.003,-17.478 -7.212,-26.315c-2.21,-8.837 -3.314,-17.413 -3.314,-25.73c0,-6.238 0.78,-12.67 2.339,-19.298c1.559,-6.627 4.158,-12.67 7.797,-18.128c3.639,-5.458 8.577,-10.006 14.814,-13.645c6.238,-3.638 13.905,-5.458 23.001,-5.458c5.978,0 11.696,0.78 17.154,2.34l0,18.323c-2.079,-0.26 -4.094,-0.585 -6.043,-0.975c-1.949,-0.39 -3.833,-0.585 -5.653,-0.585c-5.977,0 -10.98,0.975 -15.009,2.924c-4.028,1.949 -7.212,4.678 -9.551,8.187c-2.339,3.509 -4.029,7.602 -5.068,12.28c-1.04,4.678 -1.56,9.746 -1.56,15.204c0,9.357 1.105,18.713 3.314,28.07c2.209,9.356 4.613,18.647 7.212,27.874c2.599,9.226 5.003,18.258 7.213,27.095c2.209,8.836 3.313,17.283 3.313,25.34c0,4.938 -0.585,9.681 -1.754,14.229c-1.17,4.549 -3.184,8.902 -6.043,13.06c2.859,4.159 4.873,8.512 6.043,13.06c1.169,4.549 1.754,9.292 1.754,14.23c0,8.057 -1.104,16.504 -3.313,25.34c-2.21,8.837 -4.614,17.868 -7.213,27.095c-2.599,9.226 -5.003,18.518 -7.212,27.874c-2.209,9.357 -3.314,18.713 -3.314,28.07c0,5.457 0.52,10.526 1.56,15.204c1.039,4.678 2.729,8.771 5.068,12.28c2.339,3.509 5.523,6.238 9.551,8.187c4.029,1.949 9.032,2.924 15.009,2.924c1.82,0 3.704,-0.195 5.653,-0.585c1.949,-0.39 3.964,-0.715 6.043,-0.975l0,18.323Z" style="fill-rule:nonzero;"/><g id="_-todd-" serif:id="(todd)"><path d="M119.391,180.77l0,29.629l15.009,0l0,6.822l-15.009,0l0,59.452c0,1.56 0.065,3.347 0.195,5.361c0.13,2.014 0.487,3.931 1.072,5.75c0.585,1.819 1.494,3.346 2.729,4.581c1.234,1.234 2.956,1.852 5.165,1.852c3.509,0 6.855,-1.755 10.039,-5.263c3.184,-3.509 5.685,-8.837 7.505,-15.984l7.212,0c-2.209,8.187 -4.581,14.652 -7.115,19.395c-2.534,4.743 -5.166,8.349 -7.894,10.818c-2.729,2.469 -5.426,4.061 -8.09,4.776c-2.664,0.715 -5.1,1.072 -7.31,1.072c-4.678,0 -8.511,-0.877 -11.5,-2.632c-2.989,-1.754 -5.328,-3.996 -7.017,-6.724c-1.69,-2.729 -2.859,-5.751 -3.509,-9.064c-0.65,-3.314 -0.975,-6.595 -0.975,-9.844l0,-63.546l-6.627,0l0,-6.822l6.627,0l0,-26.9l19.493,-2.729Z" style="fill:#d44100;fill-rule:nonzero;"/><path d="M179.402,209.424c5.068,0 9.422,0.78 13.06,2.339c3.639,1.56 6.628,3.736 8.967,6.53c2.339,2.794 4.191,6.075 5.555,9.844c1.365,3.768 2.372,7.797 3.022,12.085l1.169,0c5.458,0 10.461,-1.104 15.009,-3.313c4.549,-2.21 8.447,-5.004 11.696,-8.382l2.924,5.263c-2.599,4.158 -6.725,7.602 -12.378,10.331c-5.653,2.729 -11.468,4.613 -17.446,5.653l0.195,7.992c0,15.983 -2.924,28.524 -8.771,37.62c-5.848,9.097 -14.035,13.645 -24.561,13.645c-4.288,0 -8.609,-0.78 -12.963,-2.339c-4.353,-1.56 -8.284,-4.159 -11.793,-7.797c-3.508,-3.639 -6.335,-8.317 -8.479,-14.035c-2.144,-5.718 -3.216,-12.8 -3.216,-21.247c0,-5.717 0.617,-11.76 1.852,-18.128c1.234,-6.367 3.313,-12.215 6.237,-17.543c2.924,-5.328 6.823,-9.746 11.696,-13.255c4.873,-3.509 10.948,-5.263 18.225,-5.263Zm1.95,84.793c6.887,0 11.955,-3.412 15.204,-10.234c3.249,-6.822 4.873,-16.471 4.873,-28.946l0,-2.339c0,-0.78 -0.065,-1.56 -0.195,-2.34c-3.769,-0.259 -6.465,-1.104 -8.089,-2.534c-1.625,-1.429 -2.437,-3.833 -2.437,-7.212c0,-2.989 0.65,-5.1 1.949,-6.335c1.3,-1.234 3.249,-1.917 5.848,-2.047c-1.559,-4.548 -3.541,-7.699 -5.945,-9.454c-2.404,-1.754 -5.101,-2.631 -8.09,-2.631c-4.028,0 -7.439,1.332 -10.233,3.996c-2.794,2.664 -5.068,6.075 -6.823,10.234c-1.754,4.158 -3.021,8.739 -3.801,13.742c-0.779,5.003 -1.169,9.908 -1.169,14.717c0,6.367 0.585,11.565 1.754,15.594c1.17,4.028 2.664,7.212 4.483,9.551c1.82,2.339 3.834,3.963 6.043,4.873c2.209,0.91 4.418,1.365 6.628,1.365Z" style="fill:#d44100;fill-rule:nonzero;"/><path d="M295.358,171.414l0,105.259c0,1.3 0.065,2.924 0.195,4.873c0.129,1.95 0.487,3.866 1.072,5.751c0.584,1.884 1.462,3.508 2.631,4.873c1.17,1.364 2.794,2.047 4.873,2.047c6.368,0 11.046,-7.083 14.035,-21.247l7.212,0c-1.429,8.187 -3.249,14.652 -5.458,19.395c-2.209,4.743 -4.548,8.349 -7.017,10.818c-2.469,2.469 -5.003,4.061 -7.602,4.776c-2.599,0.715 -4.938,1.072 -7.018,1.072c-2.988,0 -5.555,-0.52 -7.699,-1.559c-2.144,-1.04 -3.964,-2.405 -5.458,-4.094c-1.494,-1.689 -2.696,-3.638 -3.606,-5.848c-0.91,-2.209 -1.624,-4.548 -2.144,-7.017c-1.95,5.068 -5.101,9.421 -9.454,13.06c-4.354,3.639 -9.649,5.458 -15.887,5.458c-3.898,0 -7.829,-0.78 -11.793,-2.339c-3.963,-1.56 -7.537,-4.126 -10.72,-7.7c-3.184,-3.573 -5.783,-8.187 -7.798,-13.839c-2.014,-5.653 -3.021,-12.573 -3.021,-20.76c0,-5.978 0.682,-12.215 2.047,-18.713c1.364,-6.497 3.541,-12.41 6.53,-17.738c2.989,-5.328 6.822,-9.746 11.5,-13.255c4.679,-3.509 10.332,-5.263 16.959,-5.263c1.559,0 3.216,0.163 4.971,0.487c1.754,0.325 3.443,0.878 5.068,1.657c1.624,0.78 3.151,1.852 4.58,3.217c1.43,1.364 2.599,3.021 3.509,4.97l0,-45.612l19.493,-2.729Zm-36.451,122.803c1.949,0 3.931,-0.553 5.945,-1.657c2.014,-1.105 3.833,-2.599 5.458,-4.484c1.624,-1.884 2.956,-4.125 3.996,-6.724c1.039,-2.599 1.559,-5.393 1.559,-8.382l0,-44.443c-0.91,-2.079 -2.307,-3.996 -4.191,-5.751c-1.884,-1.754 -4.321,-2.631 -7.31,-2.631c-4.158,0 -7.732,1.397 -10.72,4.191c-2.989,2.794 -5.393,6.302 -7.213,10.526c-1.819,4.223 -3.151,8.836 -3.996,13.84c-0.844,5.003 -1.267,9.778 -1.267,14.327c0,11.175 1.527,19.167 4.581,23.975c3.054,4.809 7.44,7.213 13.158,7.213Z" style="fill:#d44100;fill-rule:nonzero;"/><path d="M387.922,171.414l0,105.259c0,1.3 0.065,2.924 0.195,4.873c0.13,1.95 0.487,3.866 1.072,5.751c0.585,1.884 1.462,3.508 2.631,4.873c1.17,1.364 2.794,2.047 4.873,2.047c6.368,0 11.046,-7.083 14.035,-21.247l7.212,0c-1.429,8.187 -3.249,14.652 -5.458,19.395c-2.209,4.743 -4.548,8.349 -7.017,10.818c-2.469,2.469 -5.003,4.061 -7.602,4.776c-2.599,0.715 -4.938,1.072 -7.017,1.072c-2.989,0 -5.556,-0.52 -7.7,-1.559c-2.144,-1.04 -3.963,-2.405 -5.458,-4.094c-1.494,-1.689 -2.696,-3.638 -3.606,-5.848c-0.91,-2.209 -1.624,-4.548 -2.144,-7.017c-1.949,5.068 -5.101,9.421 -9.454,13.06c-4.353,3.639 -9.649,5.458 -15.886,5.458c-3.899,0 -7.83,-0.78 -11.793,-2.339c-3.964,-1.56 -7.538,-4.126 -10.721,-7.7c-3.184,-3.573 -5.783,-8.187 -7.797,-13.839c-2.015,-5.653 -3.022,-12.573 -3.022,-20.76c0,-5.978 0.683,-12.215 2.047,-18.713c1.365,-6.497 3.541,-12.41 6.53,-17.738c2.989,-5.328 6.822,-9.746 11.501,-13.255c4.678,-3.509 10.331,-5.263 16.958,-5.263c1.56,0 3.216,0.163 4.971,0.487c1.754,0.325 3.443,0.878 5.068,1.657c1.624,0.78 3.151,1.852 4.581,3.217c1.429,1.364 2.599,3.021 3.508,4.97l0,-45.612l19.493,-2.729Zm-36.451,122.803c1.949,0 3.931,-0.553 5.945,-1.657c2.014,-1.105 3.833,-2.599 5.458,-4.484c1.624,-1.884 2.956,-4.125 3.996,-6.724c1.039,-2.599 1.559,-5.393 1.559,-8.382l0,-44.443c-0.909,-2.079 -2.306,-3.996 -4.191,-5.751c-1.884,-1.754 -4.321,-2.631 -7.309,-2.631c-4.159,0 -7.732,1.397 -10.721,4.191c-2.989,2.794 -5.393,6.302 -7.213,10.526c-1.819,4.223 -3.151,8.836 -3.996,13.84c-0.844,5.003 -1.267,9.778 -1.267,14.327c0,11.175 1.527,19.167 4.581,23.975c3.054,4.809 7.44,7.213 13.158,7.213Z" style="fill:#d44100;fill-rule:nonzero;"/></g><path d="M417.101,426.876c2.079,0.26 4.028,0.585 5.848,0.975c1.819,0.39 3.638,0.584 5.458,0.584c11.955,0 20.142,-3.703 24.56,-11.11c4.419,-7.407 6.628,-16.569 6.628,-27.485c0,-9.356 -1.105,-18.713 -3.314,-28.069c-2.209,-9.356 -4.613,-18.648 -7.212,-27.874c-2.599,-9.227 -5.003,-18.258 -7.212,-27.095c-2.21,-8.837 -3.314,-17.283 -3.314,-25.34c0,-4.938 0.585,-9.682 1.754,-14.23c1.17,-4.548 3.184,-8.901 6.043,-13.06c-2.859,-4.158 -4.873,-8.512 -6.043,-13.06c-1.169,-4.548 -1.754,-9.291 -1.754,-14.229c0,-8.057 1.104,-16.504 3.314,-25.341c2.209,-8.836 4.613,-17.868 7.212,-27.094c2.599,-9.227 5.003,-18.518 7.212,-27.875c2.209,-9.356 3.314,-18.712 3.314,-28.069c0,-10.916 -2.209,-20.077 -6.628,-27.484c-4.418,-7.408 -12.605,-11.111 -24.56,-11.111c-1.82,0 -3.704,0.195 -5.653,0.585c-1.949,0.389 -3.964,0.714 -6.043,0.974l0,-18.323c5.458,-1.559 11.176,-2.339 17.154,-2.339c9.096,0 16.698,1.819 22.806,5.458c6.108,3.639 11.046,8.187 14.814,13.645c3.769,5.458 6.433,11.5 7.992,18.128c1.56,6.627 2.339,13.06 2.339,19.298c0,8.316 -1.104,16.893 -3.313,25.73c-2.21,8.836 -4.614,17.608 -7.213,26.315c-2.599,8.706 -5.003,17.218 -7.212,25.535c-2.209,8.317 -3.314,16.114 -3.314,23.391c0,3.119 0.26,6.238 0.78,9.356c0.52,3.119 1.559,5.913 3.119,8.382c1.559,2.469 3.638,4.483 6.237,6.043c2.599,1.559 5.978,2.339 10.137,2.339c3.378,0 7.407,-0.39 12.085,-1.17l0,21.832c-4.678,-0.78 -8.707,-1.17 -12.085,-1.17c-4.159,0 -7.538,0.78 -10.137,2.34c-2.599,1.559 -4.678,3.573 -6.237,6.042c-1.56,2.469 -2.599,5.263 -3.119,8.382c-0.52,3.119 -0.78,6.238 -0.78,9.356c0,7.538 1.105,15.4 3.314,23.586c2.209,8.187 4.613,16.634 7.212,25.341c2.599,8.706 5.003,17.478 7.213,26.315c2.209,8.836 3.313,17.413 3.313,25.73c0,6.237 -0.779,12.67 -2.339,19.297c-1.559,6.628 -4.223,12.671 -7.992,18.128c-3.768,5.458 -8.706,10.007 -14.814,13.645c-6.108,3.639 -13.71,5.458 -22.806,5.458c-5.718,0 -11.306,-0.78 -16.764,-2.339l0,-18.323Z" style="fill-rule:nonzero;"/></g></g></svg>