<svg xmlns="http://www.w3.org/2000/svg" fill-rule="evenodd" stroke-linejoin="round" stroke-miterlimit="2" clip-rule="evenodd" viewBox="0 0 103 53"><defs/><g fill="#f4f5f6" fill-rule="nonzero"><path d="M74.299 6.695l3.358-.915 1.15-3.287 1.907 2.913 3.48.077-2.178 2.715 1.002 3.334-3.256-1.235-2.861 1.984.166-3.479-2.768-2.107zm13.515 7.213l3.834-2.248.32-4.433 3.322 2.952 4.315-1.064-1.781 4.07 2.347 3.774-4.421-.432-2.866 3.396-.954-4.342-4.116-1.673zm6.759 10.979l3.11 1.565 3.051-1.676-.526 3.44 2.538 2.383-3.436.564-1.481 3.148-1.6-3.092-3.451-.437 2.446-2.475-.651-3.42zM63.733 0L39.579 25.989l-.507-.507L26.114 9.97 1.772 41.745h97.602L63.733 0zM7.506 45.78H4.845v6.127H2.66V45.78H0v-1.97h7.506v1.97zm12.77-1.969l-3.143 8.202h-1.268l-1.886-4.772-1.933 4.772h-1.278l-3.08-8.202h2.269l1.508 4.487 1.729-4.487h1.566l1.698 4.487 1.576-4.487h2.242zm.748 0h2.19v8.098h-2.19zm9.272 8.098H24.78v-8.098h2.189v6.158h3.327v1.94zm1.015-8.098h2.191v8.098h-2.191zm10.603 7.524c-.158.066-.292.121-.404.164a8.17 8.17 0 01-.322.117 9.28 9.28 0 01-.448.135c-.332.084-.663.15-.992.195-.33.045-.68.067-1.046.067a4.645 4.645 0 01-2.043-.45 3.469 3.469 0 01-1.5-1.396c-.375-.631-.563-1.406-.563-2.324 0-.592.097-1.174.291-1.745.195-.571.49-1.027.888-1.37a3.955 3.955 0 011.985-.952 6.818 6.818 0 011.063-.076c.639 0 1.167.055 1.582.161.416.107.872.249 1.367.425v1.916a5.642 5.642 0 00-1.042-.537c-.366-.145-.824-.217-1.373-.217-.632 0-1.138.133-1.516.4-.379.268-.643.585-.791.956a2.87 2.87 0 00-.222 1.076c0 .408.085.785.256 1.129.17.345.429.623.774.83.347.209.764.313 1.252.313a3.6 3.6 0 00.892-.122v-.953h-.986v-1.629h2.898v3.887zm9.124.574h-2.185v-3.162h-3.295v3.162h-2.19v-8.098h2.19v2.975h3.295v-2.975h2.185v8.098zm8.516-6.129h-2.661v6.127h-2.184V45.78h-2.662v-1.97h7.507v1.97zm6.086 3.773c0 .506-.116.946-.348 1.315a2.28 2.28 0 01-.973.85c-.416.197-.892.294-1.43.294-.15 0-.334-.011-.553-.032a6.482 6.482 0 01-1.999-.61v-1.986c.368.252.728.463 1.082.63.354.167.734.251 1.139.251.374 0 .616-.069.726-.208.11-.138.165-.267.165-.388a.683.683 0 00-.282-.553c-.19-.15-.463-.305-.824-.464a6.29 6.29 0 01-1.047-.61 2.677 2.677 0 01-.736-.828c-.189-.33-.285-.721-.285-1.174 0-.436.097-.83.288-1.183.192-.352.485-.634.88-.844.395-.21.876-.315 1.446-.315.405 0 .78.045 1.124.133.344.086.628.185.852.295.224.108.377.194.461.256v1.9a5.931 5.931 0 00-.992-.637 2.534 2.534 0 00-1.171-.281c-.273 0-.471.059-.593.176a.57.57 0 00-.184.432c0 .16.061.298.184.415.122.118.34.259.655.427.559.292 1.006.556 1.341.789.335.234.599.503.789.81.191.305.285.685.285 1.14zm7.721 1.747c-.3.175-.608.316-.922.42-.313.105-.631.18-.951.225-.319.044-.65.067-.992.067-.633 0-1.2-.097-1.701-.292a3.667 3.667 0 01-2.131-2.194 4.883 4.883 0 01-.276-1.674c0-.697.109-1.308.325-1.832.217-.523.52-.959.91-1.306a3.757 3.757 0 011.331-.768 4.987 4.987 0 011.573-.248c.824 0 1.758.204 2.803.613v2.151a7.489 7.489 0 00-1.067-.623c-.35-.166-.763-.248-1.239-.248a2.57 2.57 0 00-1.184.279 2.245 2.245 0 00-.884.801c-.225.346-.335.752-.335 1.215 0 .408.097.783.293 1.125.195.34.466.611.814.812.347.199.739.301 1.176.301a3.43 3.43 0 001-.144c.314-.096.579-.202.794-.319.216-.117.436-.254.663-.414V51.3zm5.84-2.442l-1.063-2.956-1.074 2.956h2.137zm3.338 3.051h-2.243l-.591-1.643h-3.154l-.603 1.643h-2.241l3.211-8.098h2.419l3.202 8.098zm4.75-5.539c0-.386-.104-.65-.308-.793-.204-.143-.569-.213-1.098-.213h-.461v1.952h.472c.363 0 .644-.024.838-.075.196-.052.337-.145.424-.281.088-.137.133-.334.133-.59zm2.231-.013c0 .3-.046.593-.139.879a2.376 2.376 0 01-.448.8 2.219 2.219 0 01-.835.602c-.35.154-.763.23-1.239.23h-1.436v3.039h-2.189v-8.098h3.624c.476 0 .889.078 1.239.233.351.156.629.358.835.608.206.249.356.521.448.812.093.295.14.592.14.895zm6.421 5.552h-5.474v-8.098h5.385v1.624h-3.196v1.484h3.05v1.631h-3.05v1.728h3.285v1.631zm6.276-2.356c0 .506-.116.946-.35 1.315a2.262 2.262 0 01-.971.85c-.417.197-.892.294-1.431.294-.15 0-.334-.011-.552-.032a5.51 5.51 0 01-.87-.178 6.422 6.422 0 01-1.129-.432v-1.986c.366.252.727.463 1.082.63a2.63 2.63 0 001.138.251c.374 0 .617-.069.726-.208.11-.138.165-.267.165-.388a.681.681 0 00-.283-.553c-.189-.15-.463-.305-.823-.464a6.239 6.239 0 01-1.046-.61 2.643 2.643 0 01-.737-.828c-.19-.33-.285-.721-.285-1.174 0-.436.096-.83.288-1.183.193-.352.486-.634.88-.844.396-.21.876-.315 1.446-.315.406 0 .781.045 1.125.133.344.086.628.185.851.295.225.108.377.194.461.256v1.9a5.9 5.9 0 00-.993-.637 2.528 2.528 0 00-1.171-.281c-.272 0-.47.059-.592.176a.57.57 0 00-.184.432c0 .16.061.298.184.415.122.118.34.259.655.427.559.292 1.007.556 1.342.789.335.234.597.503.789.81.191.305.285.685.285 1.14z"/><path d="M39.771 23.917l7.675-7.926C44.296 7.708 35.691 1.187 25.844 1.187c-12.544 0-22.712 9.611-22.712 21.466 0 4.098 1.215 7.926 3.324 11.184L26.063 7.591"/></g></svg>